<svg width="16" height="10" viewBox="0 0 16 10" fill="none" xmlns="http://www.w3.org/2000/svg">
<path d="M7.99998 9.25004C7.93431 9.25013 7.86927 9.23723 7.8086 9.21209C7.74793 9.18695 7.69284 9.15006 7.64648 9.10354L0.14648 1.60354C0.0987245 1.55742 0.0606334 1.50224 0.0344289 1.44124C0.00822435 1.38024 -0.00556876 1.31463 -0.00614567 1.24824C-0.00672258 1.18185 0.00592827 1.11601 0.0310687 1.05456C0.0562092 0.993115 0.0933357 0.937289 0.140282 0.890343C0.187228 0.843397 0.243054 0.80627 0.304503 0.78113C0.365951 0.755989 0.43179 0.743338 0.49818 0.743915C0.56457 0.744492 0.63018 0.758285 0.691182 0.78449C0.752184 0.810694 0.807356 0.848786 0.85348 0.896541L7.99998 8.04304L15.1465 0.896541C15.1926 0.848786 15.2478 0.810694 15.3088 0.78449C15.3698 0.758285 15.4354 0.744492 15.5018 0.743915C15.5682 0.743338 15.634 0.755989 15.6955 0.78113C15.7569 0.80627 15.8127 0.843397 15.8597 0.890343C15.9066 0.937289 15.9438 0.993115 15.9689 1.05456C15.994 1.11601 16.0067 1.18185 16.0061 1.24824C16.0055 1.31463 15.9917 1.38024 15.9655 1.44124C15.9393 1.50224 15.9012 1.55742 15.8535 1.60354L8.35348 9.10354C8.30712 9.15006 8.25203 9.18695 8.19136 9.21209C8.13069 9.23723 8.06565 9.25013 7.99998 9.25004V9.25004Z" fill="white"/>
</svg>
